/* XPM */
static char * collectible_xpm[] = {
"64 64 177 2",
"  	c None",
". 	c #4CD600",
"+ 	c #66CF04",
"@ 	c #57D301",
"# 	c #51D401",
"$ 	c #E9621F",
"% 	c #E7661F",
"& 	c #DA731C",
"* 	c #C28C18",
"= 	c #9EAE10",
"- 	c #55D301",
"; 	c #E7641F",
"> 	c #C29017",
", 	c #65CB04",
"' 	c #EA651E",
") 	c #ED6F1A",
"! 	c #F27D16",
"~ 	c #F58613",
"{ 	c #F68910",
"] 	c #F48513",
"^ 	c #F27F15",
"/ 	c #F07917",
"( 	c #ED701A",
"_ 	c #D57A1B",
": 	c #83BF09",
"< 	c #4DD500",
"[ 	c #EB681D",
"} 	c #F38014",
"| 	c #FC9706",
"1 	c #FE9E01",
"2 	c #FF9F00",
"3 	c #FFA000",
"4 	c #FF9F01",
"5 	c #FA9409",
"6 	c #ED6F1B",
"7 	c #E16C1D",
"8 	c #92B60D",
"9 	c #4ED500",
"0 	c #FB9508",
"a 	c #FD9B03",
"b 	c #F17A17",
"c 	c #E9631F",
"d 	c #E36A1E",
"e 	c #95B40E",
"f 	c #EE7319",
"g 	c #FD9A04",
"h 	c #F48213",
"i 	c #E9641F",
"j 	c #E06D1D",
"k 	c #83BF0A",
"l 	c #4DD600",
"m 	c #FC9905",
"n 	c #F48313",
"o 	c #DF6D1D",
"p 	c #EC6B1C",
"q 	c #FB9607",
"r 	c #FE9C00",
"s 	c #FD9400",
"t 	c #FC8F00",
"u 	c #FC8C00",
"v 	c #FD9300",
"w 	c #FE9A00",
"x 	c #FA930A",
"y 	c #FD9100",
"z 	c #F76600",
"A 	c #F66200",
"B 	c #F66100",
"C 	c #F66400",
"D 	c #F87400",
"E 	c #FB8700",
"F 	c #FC9805",
"G 	c #F88E0D",
"H 	c #FE9800",
"I 	c #F76B00",
"J 	c #F97600",
"K 	c #FA7D00",
"L 	c #FA8100",
"M 	c #F76A00",
"N 	c #F27E16",
"O 	c #EA641E",
"P 	c #FF9E00",
"Q 	c #FD9200",
"R 	c #FA7C00",
"S 	c #F97C00",
"T 	c #FE9D00",
"U 	c #F78B0E",
"V 	c #F48312",
"W 	c #F88C0D",
"X 	c #F27D15",
"Y 	c #FE9700",
"Z 	c #F76C00",
"` 	c #FB8A00",
" .	c #F48413",
"..	c #F07718",
"+.	c #FE9D02",
"@.	c #F66300",
"#.	c #F76900",
"$.	c #FE9B00",
"%.	c #ED701B",
"&.	c #F97B00",
"*.	c #F58810",
"=.	c #EB6A1C",
"-.	c #FB9606",
";.	c #FB8600",
">.	c #F97500",
",.	c #F97800",
"'.	c #FD9600",
").	c #FD9500",
"!.	c #F86F00",
"~.	c #F88D0D",
"{.	c #EA661E",
"].	c #F9910B",
"^.	c #F97A00",
"/.	c #F87300",
"(.	c #FC8B00",
"_.	c #EA671E",
":.	c #F78A0F",
"<.	c #F86D00",
"[.	c #FE9A01",
"}.	c #FC9000",
"|.	c #F87000",
"1.	c #F76800",
"2.	c #FE9F01",
"3.	c #FA7F00",
"4.	c #FE9900",
"5.	c #EE731A",
"6.	c #FD9C03",
"7.	c #FA7B00",
"8.	c #F97400",
"9.	c #EC6D1B",
"0.	c #FF9D00",
"a.	c #FC8E00",
"b.	c #EE711A",
"c.	c #FC8D00",
"d.	c #EB691D",
"e.	c #FB8800",
"f.	c #FE9B01",
"g.	c #F58611",
"h.	c #FD8F00",
"i.	c #FC9704",
"j.	c #F17C16",
"k.	c #F86E00",
"l.	c #FA9309",
"m.	c #EE721A",
"n.	c #FB8900",
"o.	c #EB691C",
"p.	c #F27E15",
"q.	c #E9641E",
"r.	c #F88F0C",
"s.	c #F97700",
"t.	c #FB9706",
"u.	c #F48412",
"v.	c #ED6E1B",
"w.	c #FD9000",
"x.	c #F07918",
"y.	c #F9920A",
"z.	c #EF7519",
"A.	c #FE9E02",
"B.	c #FC9904",
"C.	c #F07817",
"D.	c #FB9506",
"E.	c #F98F0B",
"F.	c #EC6C1C",
"G.	c #FE9C02",
"H.	c #F17B16",
"I.	c #FA8200",
"J.	c #FB8500",
"K.	c #F76500",
"L.	c #F37F14",
"M.	c #FB9507",
"N.	c #F9900C",
"O.	c #FD9301",
"P.	c #F6890F",
"Q.	c #F07818",
"R.	c #ED6D1B",
"S.	c #F58711",
"T.	c #ED6E1A",
"                                                                                                . .                             ",
"                                                                                              . .                               ",
"                                                                                              . .         . .                   ",
"                                                                                              . .       . . . .                 ",
"                                                                                            . . .     . . . .                   ",
"                                                                                            . .       . . . .                   ",
"                                                                                            . .       . . .                     ",
"                                                                                          . . .     . . . .         . .         ",
"                                                                                          . . .     . . .       . . . . .       ",
"                                                                                          . .     . . . .     . . . . . .       ",
"                                                                                          . .     . . .     . . . . . .         ",
"                                                                                          . . . . . .     . . . . . .           ",
"                                                                                        + @ # . . .     . . . . . .             ",
"                                                                        $ $ $ $ $ $ $ $ % & * = - .   . . . . .       . . . . . ",
"                                                                  $ $ $ $ $ $ $ $ $ $ $ $ $ $ ; > , . . . . .       . . . . . . ",
"                                                                $ $ $ $ ' ) ! ~ { { ] ^ / ( ' $ $ _ : < . .       . . . . . .   ",
"                                                              $ $ $ [ } | 1 2 3 3 3 3 3 4 1 5 6 $ $ 7 8 9     . . . . . .       ",
"                                                            $ $ $ 6 0 2 3 3 3 3 3 3 3 3 3 3 3 a b c $ d e 9 . . . .             ",
"                                                          $ $ $ f g 3 3 3 3 3 3 3 3 3 3 3 3 3 3 1 h i $ j k l .                 ",
"                                                        $ $ $ 6 m 3 3 3 3 3 3 3 3 3 3 3 3 3 3 3 3 4 n c $ o                     ",
"                                                      $ $ $ p q r s t u t v w 2 3 3 3 3 3 3 3 3 3 3 1 b $ $ $                   ",
"                                                      $ $ [ x y z A B B B A C D E w 3 3 3 3 3 3 3 3 3 F [ $ $                   ",
"                                                    $ $ ' G 3 H I J K L K J M A B M u 2 3 3 3 3 3 3 3 2 N $ $                   ",
"                                                  $ $ O { 2 3 3 P 2 2 3 2 2 P Q R A A S T 3 3 3 3 3 3 3 U c $ $                 ",
"                                                $ $ c V 4 3 3 3 3 3 3 3 3 3 3 3 2 t I B R 2 3 3 3 3 3 3 W c $ $                 ",
"                                              $ $ c X 1 3 3 3 3 3 3 3 3 3 3 3 3 3 3 Y Z A ` 3 3 3 3 3 3  .$ $                   ",
"                                            $ $ $ ..+.3 3 3 3 3 3 3 3 3 3 3 3 3 3 3 3 y @.#.$.3 3 3 3 1 ( $ $                   ",
"                                          $ $ $ %.g 2 2 2 2 3 3 3 3 3 3 3 3 3 3 3 3 3 2 &.B E 3 3 3 2 *.c $ $                   ",
"                                        $ $ $ =.-.2 ;.J >.,.L ` '.2 3 3 3 3 3 3 3 3 3 3 ).@.!.P 3 3 ~.{.$ $                     ",
"                                        $ $ {.].3 2 ^.A A A B B @./.(.P 3 3 3 3 3 3 3 3 P !.@.Y 2 G _.$ $ $                     ",
"                                      $ $ O :.3 3 3 Y s ).Q (.L <.A B J Y 3 3 3 3 3 3 3 3 (.E [.{ {.$ $ $                       ",
"                                    $ $ c h 4 3 3 3 3 3 3 3 3 3 P }.|.B 1.s 3 3 3 3 3 3 3 3 2.V O $ $ $                         ",
"                                  $ $ $ b 1 3 3 3 3 3 3 3 3 3 3 3 3 r 3.B Z 4.3 3 3 3 3 3 +.X c $ $                             ",
"                                $ $ $ 5.6.3 3 3 3 3 3 3 3 3 3 3 3 3 3 P 7.B 8.P 3 3 3 3 a ..c $ $                               ",
"                              $ $ $ 9.F 2 P 0.T P 2 3 3 3 3 3 3 3 3 3 3 r !.A a.3 3 3 q b.$ $ $                                 ",
"                              $ $ [ 5 3 E z C C M J ` w 3 3 3 3 3 3 3 3 3 c.B J 2 4 G d.$ $ $                                   ",
"                            $ $ ' G 3 3 ` 1.Z M C A B 1.e.P 3 3 3 3 3 3 3 T I !.f.h O $ $ $                                     ",
"                          $ $ c g.2 3 3 2 P P P T h.R @.B ,.T 3 3 3 3 3 3 3 H i...c $ $ $                                       ",
"                        $ $ $ j.2.3 3 3 3 3 3 3 3 3 2 v k.B R P 3 3 3 3 3 3 l.9.$ $ $                                           ",
"                      $ $ $ m.6.3 3 3 3 3 3 3 3 3 3 3 3 Y I B n.3 3 3 3 4 { _.$ $ $                                             ",
"                      $ $ o.-.3 3 3 3 3 3 3 3 3 3 3 3 3 3 y @.Z r 3 3 6.p.q.$ $ $                                               ",
"                    $ $ ' r.3 2 P 2 2 2 3 3 3 3 3 3 3 3 3 2 s.A (.3 t.5.$ $ $ $                                                 ",
"                  $ $ c u.2 2 s.Z k.|.J e.4.3 3 3 3 3 3 3 3 s n.r r.=.$ $ $                                                     ",
"                $ $ $ / 1 3 2 |.C @.@.A B #.u 2 3 3 3 3 3 3 3 1 u.' $ $ $                                                       ",
"                $ $ v.g 3 3 3 4.T $.H w.R @.A u 3 3 3 3 3 3 g x.c $ $ $                                                         ",
"              $ $ ' y.3 3 3 3 3 3 3 3 3 2 u @.1.H 3 3 3 3 l.v.$ $ $                                                             ",
"            $ $ c u.2 3 3 3 3 3 3 3 3 3 3 2 3.B ;.3 3 1 g.{.$ $ $                                                               ",
"          $ $ $ z.A.3 3 3 3 3 3 3 3 3 3 3 3 Q A >.2 B.C.c $ $ $                                                                 ",
"          $ $ d.D.t c.y Y P 3 3 3 3 3 3 3 3 P ^.e.E.F.$ $ $                                                                     ",
"        $ $ q.U T z B A @.!.u 2 3 3 3 3 3 3 3 G.n ' $ $ $                                                                       ",
"      $ $ $ H.4 2 I.3.^.k.A A K 2 3 3 3 3 3 | z.c $ $ $                                                                         ",
"      $ $ [ F 3 3 3 3 2 P }.M B J.3 3 3 4 ~.=.$ $ $                                                                             ",
"    $ $ c g.3 3 3 3 3 3 3 3 s K.z $.3 G.L.O $ $ $                                                                               ",
"    $ $ ( +.3 3 3 3 3 3 3 3 2 S @.c.M.m.$ $ $ $                                                                                 ",
"  $ $ O N.3 3 3 3 3 3 3 3 3 3 H O.P.[ $ $ $                                                                                     ",
"  $ $ Q.2.3 3 3 3 3 3 3 3 3 3 g H.c $ $ $                                                                                       ",
"$ $ O ].3 3 3 3 3 3 3 3 3 2 ].9.$ $ $ $                                                                                         ",
"$ $ R.1 3 3 3 3 3 3 3 3 +.h ' $ $ $                                                                                             ",
"$ $ b 2 3 3 3 3 3 3 3 q f c $ $ $                                                                                               ",
"$ $ H.2 3 3 3 3 2 6.S.[ $ $ $                                                                                                   ",
"$ $ p | 1 1 g ~.! =.c $ $ $                                                                                                     ",
"$ $ $ {.) T.{.c $ $ $ $ $                                                                                                       ",
"  $ $ $ $ $ $ $ $ $ $                                                                                                           ",
"      $ $ $ $ $                                                                                                                 "};
